<?xml version="1.0" standalone="no"?>
<!DOCTYPE svg PUBLIC "-//W3C//DTD SVG 20010904//EN"
 "http://www.w3.org/TR/2001/REC-SVG-20010904/DTD/svg10.dtd">
<svg version="1.0" xmlns="http://www.w3.org/2000/svg"
 width="707.000000pt" height="353.000000pt" viewBox="0 0 707.000000 353.000000"
 preserveAspectRatio="xMidYMid meet">

<g transform="translate(0.000000,353.000000) scale(0.100000,-0.100000)"
fill="#000000" stroke="none">
<path d="M1605 2730 c-28 -7 -27 -8 15 -10 38 -2 32 -4 -33 -12 -55 -6 -97
-18 -140 -40 -62 -31 -65 -50 -5 -29 17 6 38 11 47 10 9 0 -13 -9 -48 -19 -72
-22 -100 -40 -61 -40 l25 -1 -28 -15 c-36 -20 -26 -35 15 -23 17 5 33 7 34 6
4 -4 -135 -97 -145 -97 -5 0 -14 -7 -21 -15 -10 -12 -6 -13 24 -8 20 3 36 2
35 -3 -1 -10 -108 -107 -185 -168 -70 -57 -345 -335 -435 -441 -106 -126 -225
-289 -256 -349 -14 -28 -29 -53 -32 -56 -14 -11 -100 -127 -114 -155 -9 -16
-26 -41 -39 -55 -56 -61 -159 -191 -203 -257 -43 -65 -47 -77 -42 -114 3 -23
10 -46 15 -51 23 -23 139 49 307 188 17 14 35 28 40 32 70 50 164 121 179 134
26 24 39 23 73 -6 46 -38 134 -84 193 -100 30 -8 67 -19 83 -25 15 -6 78 -15
140 -21 125 -12 150 -17 142 -31 -4 -5 1 -9 9 -9 24 0 19 -30 -19 -111 -50
-104 -50 -104 -71 -108 -24 -4 -64 -31 -64 -42 0 -14 34 -10 56 6 29 22 40 18
79 -22 35 -39 50 -28 19 15 -19 27 -18 27 47 -3 29 -13 55 -22 57 -20 19 18
-53 85 -92 85 -22 0 -21 13 11 106 l27 81 175 6 c110 3 203 12 247 22 l72 17
76 -64 c61 -50 76 -67 71 -83 -14 -47 -17 -85 -8 -85 6 0 23 20 38 44 15 24
41 51 59 60 93 49 116 63 110 68 -7 8 -51 -5 -92 -26 -52 -27 -37 -2 28 45 33
24 60 47 60 52 0 13 -22 3 -98 -48 -38 -25 -72 -45 -76 -45 -4 0 -21 10 -39
23 -86 60 -98 77 -56 77 28 0 169 63 234 105 78 50 163 135 214 215 42 65 86
188 95 270 18 152 29 221 37 226 12 7 11 76 -1 108 -5 14 -6 26 -1 26 5 0 12
-10 16 -22 4 -15 8 -18 12 -10 4 10 -13 57 -34 95 -2 4 -2 7 2 7 3 0 14 -15
25 -32 26 -42 26 -14 1 44 -21 48 -108 168 -122 168 -11 0 -103 69 -107 82 -2
5 11 0 30 -12 44 -27 51 -25 43 10 -6 29 -5 30 84 72 50 24 91 46 91 51 0 4
-13 7 -30 7 -16 0 -52 5 -80 11 -43 9 -54 8 -69 -5 -27 -25 -37 -19 -12 7 13
15 19 31 16 43 -4 13 -2 12 6 -3 7 -14 24 -25 43 -27 56 -9 186 -18 186 -13 0
11 -101 56 -183 82 -70 23 -91 34 -102 54 -17 34 -218 136 -295 150 -144 27
-177 31 -224 30 -28 -1 -64 -5 -81 -9z m333 -144 c32 -17 80 -67 116 -120 27
-40 34 -90 16 -101 -7 -4 -9 -25 -5 -53 l6 -47 -17 33 c-23 45 -65 85 -111
107 -31 15 -64 19 -175 19 -76 1 -138 3 -138 5 0 12 39 30 64 31 26 0 28 2 23
30 -16 76 134 141 221 96z m-293 -716 c-100 -122 -272 -265 -403 -333 -41 -22
-75 -37 -77 -35 -3 2 26 24 63 48 216 141 356 259 439 367 14 18 28 31 31 29
3 -3 -21 -37 -53 -76z m670 -77 c-9 -66 -18 -81 -39 -60 -26 25 -20 72 11 95
16 11 30 19 32 17 1 -2 0 -26 -4 -52z m-109 -399 c-9 -34 -63 -102 -89 -110
-13 -4 -23 -1 -29 10 -5 9 -16 16 -23 16 -8 0 -15 7 -15 16 0 11 -6 15 -20 11
-29 -7 -25 3 13 35 31 27 67 37 67 19 0 -4 11 -6 24 -4 18 4 25 0 28 -14 4
-15 8 -12 24 14 23 40 28 41 20 7z m-201 -144 c5 -8 11 -7 21 1 25 21 16 -15
-10 -40 -21 -19 -30 -22 -70 -16 -25 4 -46 11 -46 15 0 5 12 18 28 29 29 22
67 27 77 11z m-263 -209 c-33 -28 -96 -36 -124 -17 -22 15 -20 16 37 17 33 0
69 4 80 9 30 13 32 11 7 -9z"/>
<path d="M1840 2520 c0 -26 36 -46 55 -30 21 17 1 50 -30 50 -18 0 -25 -5 -25
-20z"/>
<path d="M2720 1905 l0 -545 131 0 132 0 -7 348 c-3 191 -9 368 -12 395 -7 54
11 66 21 15 4 -18 11 -46 16 -63 5 -16 25 -86 44 -155 34 -122 62 -220 72
-250 3 -8 14 -46 24 -85 25 -95 46 -167 54 -187 6 -16 23 -18 140 -18 l132 0
22 68 c11 37 32 112 47 167 14 55 28 104 31 108 3 5 13 43 24 85 10 42 23 88
28 102 5 14 19 63 31 110 32 123 41 150 48 150 4 0 5 -178 4 -395 l-4 -395
131 0 131 0 0 545 0 545 -195 0 c-148 0 -196 -3 -199 -12 -2 -7 -25 -89 -51
-183 -27 -93 -59 -206 -72 -250 -13 -44 -29 -98 -35 -120 -5 -22 -16 -58 -23
-80 -7 -22 -18 -60 -25 -85 -11 -39 -14 -42 -25 -27 -6 9 -20 47 -29 84 -10
38 -24 84 -31 103 -7 19 -23 73 -35 120 -12 47 -28 100 -36 118 -8 18 -14 39
-14 46 0 7 -11 49 -25 92 -23 72 -33 108 -50 172 -6 22 -8 22 -201 22 l-194 0
0 -545z"/>
<path d="M5525 2202 c-30 -10 -68 -34 -95 -60 -24 -23 -49 -41 -55 -38 -6 2
-17 27 -25 55 l-14 51 -108 0 -108 0 0 -425 0 -425 145 0 145 0 0 250 c0 269
6 307 56 359 19 21 33 25 79 25 48 1 59 -3 74 -23 33 -44 41 -114 41 -367 l0
-244 140 0 140 0 0 314 c0 194 -4 326 -11 347 -28 89 -87 154 -165 182 -61 22
-171 21 -239 -1z"/>
<path d="M6325 2192 c-144 -39 -141 -36 -110 -108 49 -112 57 -124 77 -113 38
20 115 39 183 45 65 6 73 5 98 -17 17 -15 30 -38 33 -60 l6 -36 -93 -7 c-222
-17 -319 -49 -370 -124 -89 -131 -48 -325 84 -394 35 -18 58 -22 137 -21 112
1 164 20 225 82 21 23 42 41 45 41 3 0 18 -27 35 -60 l29 -60 98 0 98 0 0 273
c0 291 -8 379 -41 442 -71 135 -288 183 -534 117z m285 -494 c0 -65 -15 -95
-59 -125 -41 -28 -97 -30 -129 -5 -31 24 -34 105 -5 131 31 29 89 47 161 50
l32 1 0 -52z"/>
<path d="M4090 2198 c1 -7 9 -31 20 -53 11 -22 19 -43 20 -48 0 -4 25 -69 56
-145 51 -125 75 -184 190 -472 21 -52 37 -103 37 -113 -3 -29 -54 -103 -84
-121 -18 -11 -51 -16 -98 -16 l-71 0 0 -110 c0 -129 -6 -125 137 -118 138 7
225 50 303 153 29 37 74 146 162 385 44 121 78 212 121 320 14 36 32 85 41
110 8 25 27 77 41 115 15 39 31 82 35 98 l9 27 -143 0 -143 0 -13 -42 c-7 -24
-23 -74 -35 -113 -12 -38 -28 -90 -35 -115 -7 -25 -18 -63 -25 -85 -31 -97
-55 -182 -55 -196 0 -42 -16 -23 -27 33 -7 34 -24 101 -39 148 -52 172 -71
236 -84 280 -27 98 -11 90 -175 90 -109 0 -145 -3 -145 -12z"/>
</g>
</svg>
